<?xml version="1.0" encoding="utf-8"?>
<!-- Generator: Adobe Illustrator 22.0.1, SVG Export Plug-In . SVG Version: 6.00 Build 0)  -->
<svg version="1.1" id="Calque_1" xmlns="http://www.w3.org/2000/svg" xmlns:xlink="http://www.w3.org/1999/xlink" x="0px" y="0px"
	 viewBox="0 0 432 432" style="enable-background:new 0 0 432 432;" xml:space="preserve">
<style type="text/css">
	.st0{fill:#940808;}
	.st1{fill:#E56B6B;}
	.st2{fill:#1A1A1A;}
	.st3{fill:#DD5151;}
	.st4{fill:#6B313C;}
	.st5{fill:#B65165;}
	.st6{fill:#EB899F;}
	.st7{fill:#9C0000;}
	.st8{fill:#4D4D4D;}
	.st9{fill:#C4924B;}
	.st10{fill:#333333;}
	.st11{fill-rule:evenodd;clip-rule:evenodd;fill:#9C0000;}
	.st12{fill:#F68484;}
	.st13{fill:#AB1F1F;}
	.st14{fill:#A45F6F;}
	.st15{fill:#DEB0B0;}
	.st16{fill:#BA3434;}
	.st17{fill:#A57B7C;}
	.st18{fill:#F2F2F2;}
	.st19{fill:#EC1C24;}
	.st20{fill:#A54550;}
	.st21{fill:#FFFFFF;}
	.st22{fill:#AE5B65;}
	.st23{fill:#F5D3D1;}
	.st24{fill:#687A6E;}
	.st25{fill:#231F20;}
	.st26{fill-rule:evenodd;clip-rule:evenodd;fill:#333333;}
	.st27{fill:#F4E6E5;}
	.st28{fill:#EFBB75;}
	.st29{fill:#D8A160;}
	.st30{fill:#EFDDCA;}
	.st31{fill:#A55B6A;}
	.st32{fill:#92A182;}
	.st33{fill:#CCCCCC;}
	.st34{fill:#944E3C;}
	.st35{fill:#C1272D;}
	.st36{fill:#C67B32;}
	.st37{fill:#72696D;}
	.st38{fill:#E3A8A4;}
	.st39{fill:#9FC8C2;}
	.st40{fill:#8B8285;}
	.st41{fill:#71796C;}
	.st42{fill-rule:evenodd;clip-rule:evenodd;fill:#E9C8C3;}
	.st43{fill:#C06666;}
	.st44{fill:#96A4A5;}
	.st45{fill:#C53C3C;}
	.st46{fill:#EA6B74;}
	.st47{fill:#406D8F;}
	.st48{fill:#77A3C0;}
	.st49{fill:#F25850;}
	.st50{fill:#253245;}
	.st51{fill:#FFAA96;}
	.st52{fill:#E0C8A4;}
	.st53{fill:#39ABA9;}
	.st54{fill:#F6DE96;}
	.st55{fill:#F1D2CD;}
	.st56{fill:#E8C3C3;}
	.st57{fill:#AB2130;}
	.st58{fill:#982A3A;}
	.st59{fill:#E19F78;}
	.st60{fill:#FEDED2;}
	.st61{fill:#FFB0A1;}
	.st62{fill:#DB3434;}
	.st63{fill:#C76B6A;}
	.st64{fill:#E05E90;}
	.st65{fill:#CE9F5C;}
	.st66{fill:#FF8D71;}
	.st67{fill:#B75041;}
	.st68{fill:#FCE4B6;}
	.st69{fill:#B24A58;}
	.st70{fill:#3C0303;}
	.st71{fill:#8B1111;}
	.st72{fill:#B02121;}
	.st73{fill:#29285B;}
	.st74{fill:#E6E6E6;}
	.st75{fill:#D59D79;}
	.st76{fill:#F0C880;}
	.st77{fill:#B3B3B3;}
	.st78{fill:#C6C6C6;}
	.st79{fill:#A6A6A6;}
	.st80{fill:#603813;}
	.st81{fill:#BC2A34;}
	.st82{fill:#999966;}
	.st83{fill:#666633;}
	.st84{fill:#CC6666;}
	.st85{fill:#663333;}
	.st86{fill-rule:evenodd;clip-rule:evenodd;fill:#FEDED2;}
	.st87{fill:#534741;}
</style>
<g>
	<path d="M112.6,243.1c0,1.1-0.1,2.3-0.4,3.4c-0.7,2.7-1.6,5.3-2.4,7.9c-0.2,0.7-0.5,1.3-0.8,2c0.5-0.1,0.6-0.3,0.8-0.6
		c3.4-4,7.2-7.5,11.9-10c0.6-0.3,1.2-0.6,1.8-0.8c0.7-0.2,1.4,0,1.6,0.7c0.2,0.5,0.1,1.2-0.2,1.6c-0.4,0.6-1.2,1-1.8,1.5
		c-2.5,2.1-5,4.2-7.5,6.4c-0.4,0.3-0.7,0.8-1.1,1.3c4.7-0.7,9.1-1.2,13.5-2.1c2.2-0.4,4.4-1.2,6.5-2c0.9-0.3,1.7-0.9,2.4-1.5
		c2-1.6,2.4-4.7,0.7-6.6c-1.2-1.4-2.4-2.8-3.9-4c-4.2-3.2-8.5-6.3-12.7-9.4c-2.3-1.6-4.8-1.8-7.4-0.8c-2.3,0.9-4.3,2.3-6.1,4.3
		c0.3,0.2,0.4,0.4,0.6,0.5C111.4,236.9,112.7,239.7,112.6,243.1z"/>
	<path d="M124.4,259.3c-0.6,0.1-1.1,0.2-2,0.3c2.4,0.8,4.4,1.4,6.4,2.3c2,0.9,4,2,5.9,3c0.5,0.3,1,0.6,1.5,1
		c0.5,0.5,0.8,1.1,0.4,1.8c-0.3,0.7-1,0.9-1.7,0.7c-0.7-0.2-1.4-0.4-2-0.7c-2.4-0.8-4.8-1.7-7.3-2.4c-2.2-0.6-4.4-1-6.9-0.7
		c0.4,0.2,0.5,0.4,0.7,0.4c3.1,0.8,6,2.2,8.5,4.2c2.4,1.9,4.7,4.1,7,6.2c1.8,1.6,3.6,3.3,5.5,4.9c0.6,0.5,1.4,0.9,2.2,1.1
		c2.3,0.7,4.3-1,4-3.4c-0.1-1.3-0.6-2.6-1-3.8c-0.5-1.4-1.2-2.7-1.9-4.1c-0.9-1.7-0.7-3.4,0.5-4.9c0.5-0.7,1-1.3,1.6-2
		c1.4-1.7,1.5-3.4,0.6-5.4c-0.9-2.1-2.5-3.6-4.2-5.1c-4.4,3.4-5.7,4.1-10.2,5.1C129.5,258.6,126.9,258.9,124.4,259.3z"/>
	<path d="M128.6,294.7c-0.5-0.4-1.1-0.7-1.9-1.2c-0.3,5.1,0,9.7,0.6,14.2c0.9,7.4,3.4,14.1,8.1,19.9c0.3,0.3,0.6,0.6,1,1
		c0-1.1-0.1-2.1,0-3c0.2-2.6,0.5-5.1,0.7-7.7c0.3-3.2,0.5-6.5-0.2-9.7C135.8,302.7,133.3,298.1,128.6,294.7z"/>
	<path d="M104.3,237.8c-3-0.6-6.2-0.9-9.3-1.2c-2-0.2-2.8,0.5-2.9,2.5c-0.1,1.6-0.1,3.2,0.1,4.8c0.7,5,2.9,9.6,4.9,14.2
		c0,0.1,0.2,0.1,0.7,0.3c-0.4-1.9-0.7-3.5-1-5.1c-0.2-0.9-0.5-1.7-0.6-2.6c0-0.4,0.3-1,0.6-1.1c0.5-0.3,1,0.1,1.3,0.6
		c0.2,0.5,0.5,1.1,0.7,1.6c0.1,0,0.1,0,0.2-0.1c-0.2-1.8-0.5-3.6-0.7-5.4c-0.1-0.7-0.2-1.3-0.1-2c0-0.8,0.5-1.4,1.3-1.5
		c0.8-0.1,1.4,0.3,1.7,1.1c0.2,0.4,0.3,0.9,0.4,1.4c0.7,3.7,1.4,7.4,2.1,11.1c0.1,0.3,0.3,0.7,0.4,1c0.8-2.1,1.6-4.1,2.2-6
		c0.8-2.5,1.7-5,2.2-7.6C109,240.6,107.6,238.5,104.3,237.8z"/>
	<path d="M100.9,329.2c3.5,4.4,8.2,6.5,13.7,6.8c4.2,0.2,8.3-0.7,12.3-2.1c0.6-0.2,1.2-0.5,2-0.8c-9.3-4.8-19-7.1-29.4-7.3
		C99.5,327.3,100.2,328.3,100.9,329.2z"/>
	<path d="M238.1,328.1c-5.2,2.4-10.5,1.2-15.9,0.8c0.5,0.4,0.8,0.7,1.2,1c2,1.6,4.1,3.1,6.1,4.7c1.3,1.1,2.5,2.4,3.7,3.7
		c0.7,0.8,0.7,1.6,0.2,2.1c-0.7,0.7-1.4,0.5-2.1,0c-0.5-0.3-1-0.7-1.5-1.1c-2.3-1.7-4.6-3.3-6.8-5c-0.4-0.3-0.8-0.4-1.2-0.6
		c2.6,3.4,4.1,7.4,5.6,11.3c0.3,0.7,0.6,1.4,1,2.1c1.5,2.5,3.1,2.9,5.7,1.4c1.7-1,3-2.3,4-4.1c2.2-4.1,2.8-8.5,1.8-13.1
		C239.7,330.2,239,329.1,238.1,328.1z"/>
	<path d="M228.2,302.7c-2.2-3.6-4.3-7.2-6.4-10.8c-0.3-0.5-0.6-1-1-1.5c-0.9-1.2-1.6-1.3-2.6-0.2c-0.9,1.1-1.7,2.3-2.4,3.6
		c-1.3,2.7-1.9,5.7-2.5,8.6c-0.6,2.7-1.2,5.5-1.8,8.2c0.1,0,0.2,0.1,0.2,0.1c0.4-0.5,0.8-1,1.2-1.5c1.5-2,2.9-4.1,4.4-6.2
		c0.3-0.5,0.8-0.9,1.2-1.3c0.6-0.4,1.2-0.4,1.8,0c0.7,0.5,0.9,1.1,0.7,1.9c-0.1,0.4-0.3,0.8-0.5,1.1c-2.2,3-4.5,6.1-6.7,9.1
		c-0.1,0.1-0.1,0.3-0.1,0.4c0.1,0.1,0.2,0.1,0.2,0.1c4.2-1.7,8.4-3.1,12.4-5C229.3,308,230.1,305.8,228.2,302.7z"/>
	<path d="M236.4,322.8c1.1-0.9,1.6-2.1,1.3-3.5c-0.3-1.6-0.9-3-2.1-4.1c-1.3-1.2-2.6-2.2-4-3.4c-3.9,4.3-9.3,5.3-14.4,7
		c3.2-0.2,6.4-0.5,9.5-0.8c0.8-0.1,1.7-0.1,2.5-0.1c0.9,0.1,1.4,0.6,1.6,1.5c0.2,0.9-0.2,1.5-0.9,2c-0.3,0.2-0.7,0.3-1,0.3
		c-2.2,0.5-4.3,0.9-6.5,1.3c-0.4,0.1-0.7,0.2-1.2,0.3c0.2,0.2,0.3,0.3,0.4,0.3c3.8,0.2,7.5,0.3,11.3,0.5
		C234.3,324.2,235.4,323.6,236.4,322.8z"/>
	<path d="M349.1,146.9c-1.9-1-3.9-1.6-6.1-1.7c-0.9,3.8-3,6.7-5.2,9.9c3.1-1.4,5.9-2.6,8.6-3.9c0.5-0.2,1-0.5,1.4,0.1
		c0.4,0.6,0.2,1.2-0.3,1.6c-0.4,0.3-0.9,0.6-1.4,0.8c-1.9,1-3.9,2-6.1,3.1c2.6,0.3,4.9,0.6,7.1,0.8c0.3,0,0.6,0,0.9,0
		c1.6,0,2.2-0.6,2.4-2.1c0.2-1.9,0.2-3.8,0.2-5.7C350.7,148.7,350.3,147.5,349.1,146.9z"/>
	<path d="M315.7,186c2.4,0.2,4.6,0.4,6.7,0.4c0.8,0,1.8-0.4,2.4-1c2.7-2.3,3.5-5.5,4.1-8.9C324.3,179.2,319.5,181.6,315.7,186z"/>
	<path d="M339.4,144.3c0.2-1.2-0.3-1.8-1.5-2.1c-1.6-0.4-3.2-0.2-4.7,0.5c-0.5,0.2-1,0.7-1.2,1.2c-0.9,2.2-0.9,4.5-0.5,6.8
		c0.3-0.6,0.4-1.2,0.6-1.9c0.2-0.8,0.4-1.6,0.7-2.4c0.4-0.9,1.2-1.2,1.9-1c0.8,0.3,0.8,1,0.7,1.7c-0.2,1.5-0.3,3.1-0.4,4.6
		c0.1,0,0.2,0,0.3,0c1.1-1.8,2.3-3.6,3.4-5.5C339,145.8,339.3,145,339.4,144.3z"/>
	<path d="M140.4,143.3c6.5-1.5,8.3-7.5,5.8-10c-4.4-4.4-13.3-1.9-15.7,0.5C127.1,137.3,132.6,145.1,140.4,143.3z"/>
	<path d="M166.6,127.2c0.1-5.6-9.1-0.2-5,2.6C163.5,131.1,166.5,128.5,166.6,127.2z"/>
	<path d="M131.3,131.4c4.4-2.6,2-5.1,0.2-5.1C126,126.7,127.7,133.6,131.3,131.4z"/>
	<path d="M170.2,142c10.7,1.3,14.3-14.2,1.6-12.6C155.2,131.5,163.8,141.8,170.2,142z"/>
	<path d="M367.4,119.8c-1-0.3-2-0.5-3-0.6c-3.7-0.4-7.2,0.4-10.6,1.7c-7.4,2.7-13.9,7.1-19.7,12.3c-6.4,5.7-11.8,12.3-16.7,19.3
		c-7.5,10.9-13.7,22.4-18.1,34.9c-3.4,9.5-6.4,19.2-9.3,28.9c-4.9,16-10.2,31.9-16.6,47.3c-6.1,14.6-14.4,27.7-25.8,38.9
		c-0.5,0.5-0.9,0.9-1.7,1.6c-0.2-0.7-0.3-1.1-0.4-1.5c-3.2-13.9-6.8-27.6-10.7-41.3c-2.1-7.3-4.1-14.7-4.8-22.3
		c-0.9-8.9,0.1-17.5,5-25.3c2.2-3.5,4.2-7.1,6.3-10.7c6.2-10.4,8.9-21.8,9.7-33.7c0.5-8-0.3-15.8-2-23.6c-1.1-5.1-2.5-10.1-3.9-15.2
		c-0.4-1.5-0.5-3.1-0.3-4.6c0.3-4.4,1.5-8.5,2.9-12.6c2.2-6.4,4.4-12.8,6.5-19.3c1.6-5.1,2.9-10.3,3.3-15.6c0.2-2.6-0.2-5.2-1.2-7.6
		c-1.5-3.6-4.5-5.1-8.2-4c-2.2,0.6-4.3,1.5-6.3,2.5c-2.5,1.3-4.8,2.9-7.2,4.4c-4.3,2.7-8.5,5.4-12.8,8c-1.4,0.8-3,1.4-4.7,1.8
		c-5.1,1.1-9.8,0-14.4-2.5c-7.4-4-15.2-7-23.4-9.2c-8.1-2.3-16.4-3.8-24.8-3.4c-4.1,0.2-8.2,0.7-12.4,1.1
		c-7.3,0.8-14.4,2.4-21.3,5.1c-3.6,1.4-7.1,2.9-10.8,4.1c-6.5,2.1-12.8,2-18.6-1.9c-1.9-1.3-3.8-2.6-5.7-3.8c-5-3.3-10.2-6-16-7.6
		c-1.9-0.5-3.9-0.8-5.9-0.5c-4,0.5-6.4,2.6-6.9,6.6c-0.2,1.6-0.3,3.2-0.1,4.8c0.8,6.8,2.5,13.3,5,19.7c1.7,4.4,3.6,8.6,5.4,12.9
		c2.1,4.9,3.1,9.9,2.7,15.2c-0.5,6.2-1.6,12.3-2.7,18.3c-1.6,8.3-3,16.6-3.2,25.1c-0.2,7.6,0.4,15.1,2.2,22.5c1.7,7.1,5,13.4,9,19.5
		c1.9,3,4,5.8,5.9,8.8c0.6,0.9,1.1,1.9,1.2,2.9c0.5,3.4,0.9,6.9,1.2,10.3c0.5,5.9,0.7,11.7,1.3,17.6c1.2,12.1,1.7,24.3,1.9,36.5
		c0.2,11.5-0.8,22.9-2.2,34.3c-1,7.8-1.3,15.7-0.8,23.5c0.2,4,0.9,7.8,2.3,11.6c1.9,5.2,5.5,8.3,10.8,9.5c1.7,0.4,3.6,0.6,5.3,0.6
		c4.4,0,8.6-0.8,12.7-2.4c4.2-1.6,8.4-3.6,12.5-5.4c3.2-1.4,6.5-2.7,10-3.5c6.1-1.2,12.2-1.7,18.4-2.1c6.8-0.4,13.5-0.5,20.3-0.8
		c9.5-0.4,18.9-0.6,28.4-0.3c3.7,0.1,7,1.1,10,3.1c1,0.7,2.1,1.4,3.1,2.2c3.1,2.3,6.3,4.6,9.4,6.9c2.2,1.6,4.6,2.8,7.3,3.5
		c1.8,0.5,3.6,0.9,5.5,0.7c7-0.8,10.9-6,12-11.1c0.7-3.4,0.7-6.9,0.5-10.4c-0.4-9.8-1.4-19.5-3.6-29.1c-0.1-0.4-0.1-0.9-0.1-1.4
		c13-6.7,22.7-16.9,30.9-28.6c5.2-7.5,9.9-15.3,13.7-23.6c5.5-11.9,10.8-23.8,16.2-35.7c7.8-17.3,16.8-33.8,28.1-49.1
		c4.2-5.7,8.7-11,13.7-16c4.1-4.1,8.2-8.2,12.3-12.3c3-3,5.8-6.1,8.1-9.6c1.4-2.2,2.6-4.6,3.3-7.2
		C376.3,126.8,373.5,121.7,367.4,119.8z M230.1,89.3c3.2-2.8,6.8-5.2,10.9-6.5c2.5-0.8,4.9,0.9,5.3,3.5c0.2,1.1,0.1,2.4-0.1,3.5
		c-0.7,3.2-2,6.1-3.6,9c-0.4,0.8-1,1.5-1.6,2.1c-0.7,0.7-1.7,0.8-2.6,0.4c-0.9-0.4-1.4-1.2-1.2-2.2c0.2-1.3,0.6-2.6,1-3.8
		c0.6-1.7,1.4-3.4,2.1-5.2c0.2-0.5,0.3-1.1,0.5-1.6c-0.1-0.1-0.2-0.1-0.3-0.2c-0.5,0.2-1,0.5-1.4,0.7c-1.7,0.9-3.5,1.8-5.2,2.7
		c-0.6,0.3-1.2,0.6-1.8,0.8c-1.1,0.4-2,0.1-2.5-0.6C229.1,91,229.2,90.1,230.1,89.3z M213.5,218c0.8-0.1,1.8-0.2,2.7-0.2
		c1.3-0.1,2.6-0.3,3.9-0.2c2,0.1,3.5,1.3,3.8,2.9c0.3,1.6-0.6,3.3-2.4,4.2c-1.2,0.5-2.5,0.8-3.9,1.3c0.1,0.7,0.3,1.4,0.5,2.1
		c0.5,2.4-0.3,4.2-2.1,5c-1.8,0.8-4.1,0-5.4-2c-0.6-0.9-0.9-2-1.5-3.2c-0.6,0.1-1.3,0.2-2,0.3c-2.8,0.4-5.9-1.8-6.4-4.6
		c-0.3-1.7,0.8-3.5,2.6-4.2c1.1-0.4,2.3-0.6,3.6-0.8c-0.2-0.7-0.5-1.4-0.7-2.1c-0.7-2.1-0.2-3.7,1.3-4.3c1.4-0.6,2.8,0.1,3.9,2
		C212.3,215.3,212.9,216.6,213.5,218z M165.5,247.2c0.5,1.7,0.5,3.4-0.4,5.1c-1.6,2.9-4.9,3.4-7.2,1c-0.6-0.7-1.1-1.6-1.5-2.4
		c-0.3-0.5-0.4-1-0.5-1.5c-0.7,0-1.2,0-1.8,0c-1.3-0.1-2.5-0.5-3.4-1.4c-2.1-1.8-2-4.9,0.3-6.5c0.7-0.5,1.6-0.8,2.5-1.3
		c-0.5-0.9-1-1.6-1.3-2.5c-0.3-1-0.6-2.1-0.5-3.1c0.3-2.7,3.2-3.9,5.3-2.2c0.7,0.6,1.2,1.4,1.7,2.2c0.4,0.6,0.7,1.4,1,2.2
		c1.2-0.5,2.2-1.1,3.4-1.4c1.2-0.4,2.5-0.8,3.8-0.9c3-0.1,5.2,2.2,4.8,4.9c-0.2,1.6-1.2,2.8-2.5,3.5c-1.4,0.7-3,1.2-4.6,1.9
		C165,245.6,165.3,246.4,165.5,247.2z M170.7,172.9c-0.4-0.2-0.6-0.6-1-1c0.4-0.4,0.6-0.8,0.9-0.9c0.5-0.2,1.2-0.4,1.7-0.4
		c1.1,0,2.1,0.2,3.2,0.4c4.1,1,7.9,2.4,11.5,4.6c3,1.8,6,3.6,8.9,5.5c3.6,2.4,6.3,5.6,8.8,9.1c0.5,0.7,0.8,1.5,1,2.3
		c0.1,0.3-0.1,0.7-0.4,0.9c-0.2,0.1-0.6,0-0.9,0c-0.2,0-0.3-0.2-0.4-0.3c-2.1-2.5-4.8-4.4-7.3-6.4c-7.1-5.8-15.2-9.6-23.7-12.7
		C172.1,173.5,171.4,173.2,170.7,172.9z M172,165.7c0.4-0.4,0.9-0.7,1.4-0.8c1.1-0.3,2.2-0.5,3.3-0.5c3.5-0.1,7,0.4,10.4,1.3
		c6,1.5,11.4,4.2,16.6,7.4c2,1.2,3.6,2.9,5.4,4.4c0.1,0.1,0.3,0.3,0.4,0.4c0.1,0.4,0.2,0.9,0,1.1c-0.2,0.3-0.7,0.4-1.1,0.4
		c-0.4,0-0.8-0.3-1.1-0.5c-2.7-1.5-5.3-3.1-8-4.5c-7.4-3.8-15.3-6.2-24.2-6.6c-0.5,0-1.5,0-2.5-0.2
		C171.5,167.4,171.3,166.5,172,165.7z M199.4,230.2c2,0.7,3.5,2,4.8,3.6c4.5,5.9,6.7,12.6,7.3,20c-0.1,0.7-0.1,1.3-0.2,1.9
		c-0.5,1.9-2.2,2.7-3.9,1.8c-0.9-0.5-1.8-1.2-2.5-2c-4.2-4.7-7.9-9.8-10.5-15.6c-0.6-1.4-1.1-2.9-1.3-4.5
		C192.3,231.5,195.6,228.9,199.4,230.2z M173.5,254.6c0.4-2.3,2.2-3.3,4.2-3.9c2.3-0.7,4.7-0.5,7.1-0.2c6,1,11.2,3.7,16.5,6.5
		c1.2,0.7,2.4,1.4,3.6,2.1c1.2,0.8,1.7,1.8,1.4,2.8c-0.4,1.3-1.3,1.9-2.6,1.9c-2.5,0-4.9,0-7.4,0c-5.1,0-10.2-0.4-15.1-1.6
		c-1.9-0.5-3.6-1.2-5.2-2.4C174.4,258.5,173.1,256.9,173.5,254.6z M203.9,265.2c0.8-0.3,1.6-0.4,2.5-0.5c2.2-0.1,3.5,1.5,3,3.6
		c0,0.1-0.1,0.2-0.1,0.3c-2.3,5.3-4,10.8-7.1,15.7c-1.2,1.8-2.6,3.5-4,5.1c-0.7,0.8-1.8,1.5-2.8,2c-3.7,1.9-7.3-0.1-7.7-4.2
		c-0.1-0.5-0.1-1-0.1-1C188.3,276.6,195.2,268,203.9,265.2z M210.2,259.4c1-1.2,2.4-1.6,3.9-1.2c1.8,0.4,3,2.1,3,4
		c0,1.9-1.2,3.5-2.9,3.9c-1.7,0.4-3.1-0.4-4.1-2.1C209.1,262.2,209.1,260.7,210.2,259.4z M202.7,159.4c2.5,0.4,5.1,0.8,7.4,1.9
		c0.3,0.1,0.7,0.3,1,0.5c0.7,0.6,0.4,1.6-0.5,1.8c-0.3,0.1-0.6,0-1,0c-8.5-1.5-17-2.1-25.6-1.9c-2.6,0.1-5.1,0.2-7.7,0.3
		c-1.4,0-2.8-0.1-4.2-0.1c-0.5,0-1-0.3-1.1-0.9c-0.1-0.7,0.3-1.1,0.9-1.3c0.8-0.3,1.6-0.6,2.4-0.7c3.9-0.3,7.9-0.7,11.8-0.9
		C191.7,157.9,197.2,158.6,202.7,159.4z M168.8,109.4c15.9-5.2,25.4,25.8,7.8,33C155.4,151,151.1,115.2,168.8,109.4z M156.8,154.2
		c1.9-0.1,3.9,0.4,5.6,1.6c3.4,2.5,3.6,6.7,0.4,9.4c-0.4,0.4-0.9,0.7-1.4,0.9c-1.5,0.7-2.3,2-2.8,3.5c-0.5,1.8-0.6,3.6-0.6,5.4
		c0,2.4,0,4.8,0,7.3c0,0.4,0,0.9-0.2,1.2c-0.2,0.3-0.6,0.7-0.9,0.7c-0.3,0-0.8-0.3-1-0.6c-0.2-0.3-0.2-0.7-0.3-1.1
		c-0.5-3.6-0.9-7.3-1.4-10.9c-0.2-1.2-0.5-2.4-0.9-3.5c-0.4-1.3-1.2-2.2-2.3-3c-1.9-1.3-3-3.1-2.7-5.6c0.3-1.7,1.2-3,2.7-3.9
		C152.7,154.5,154.7,154.2,156.8,154.2z M145.5,112.6c10.3,6.3,10.6,25.6-0.9,31.1c-9.7,4.6-16.9-1.8-18.9-9
		C121.6,120.2,133.3,105,145.5,112.6z M108.6,192.4c0.3-0.8,0.6-1.6,1-2.3c2.4-3.5,5.2-6.7,8.8-9.1c2.9-1.9,5.9-3.7,8.9-5.5
		c3.6-2.2,7.4-3.6,11.5-4.6c1-0.2,2.1-0.4,3.2-0.4c0.6,0,1.2,0.2,1.7,0.4c0.3,0.1,0.6,0.5,0.9,0.9c-0.4,0.4-0.7,0.8-1,1
		c-0.7,0.4-1.5,0.6-2.2,0.9c-8.5,3.1-16.6,7-23.7,12.7c-2.5,2.1-5.2,3.9-7.3,6.4c-0.1,0.1-0.3,0.3-0.4,0.3c-0.3,0.1-0.7,0.2-0.9,0
		C108.7,193.1,108.5,192.6,108.6,192.4z M106.9,178.9c-0.4,0.2-0.7,0.5-1.1,0.5c-0.4,0-0.9-0.1-1.1-0.4c-0.2-0.3,0-0.8,0-1.1
		c0-0.2,0.2-0.3,0.4-0.4c1.8-1.5,3.4-3.2,5.4-4.4c5.2-3.2,10.7-5.9,16.6-7.4c3.4-0.8,6.8-1.3,10.4-1.3c1.1,0,2.2,0.3,3.3,0.5
		c0.5,0.1,1,0.5,1.4,0.8c0.7,0.7,0.4,1.7-0.6,1.9c-1,0.2-1.9,0.1-2.5,0.2c-8.8,0.4-16.7,2.7-24.2,6.6
		C112.2,175.8,109.6,177.4,106.9,178.9z M103.1,161.8c0.3-0.2,0.6-0.4,1-0.5c2.4-1.1,4.9-1.5,7.4-1.9c5.5-0.8,11-1.5,16.6-1.3
		c4,0.2,7.9,0.5,11.8,0.9c0.8,0.1,1.6,0.4,2.4,0.7c0.5,0.2,1,0.6,0.9,1.3c-0.1,0.6-0.6,0.8-1.1,0.9c-1.4,0.1-2.8,0.2-4.2,0.1
		c-2.6-0.1-5.1-0.2-7.7-0.3c-8.6-0.1-17.1,0.4-25.6,1.9c-0.3,0.1-0.7,0.1-1,0C102.7,163.4,102.4,162.4,103.1,161.8z M92.4,209.8
		c0.6-0.3,1.2-0.6,1.9-0.9c-0.4-0.5-0.7-0.9-1-1.3c-1.1-1.5-2.1-3.1-2.3-5c-0.2-1.5,0.1-2.9,1.5-3.8c1.1-0.7,2.8-0.6,4,0.5
		c1,1,1.9,2.1,2.8,3.3c0.4,0.6,0.7,1.2,1.1,1.7c2.1-1,4.1-2.1,6.2-3c0.9-0.4,2-0.6,2.9-0.6c2.4,0,4.1,2.2,3.5,4.6
		c-0.5,2.1-1.8,3.7-3.5,4.8c-1,0.7-2.2,1.3-3.3,1.9c0.6,1,1.1,2.1,1.7,3.1c0.6,1.1,0.9,2.4,0.7,3.6c-0.3,2.9-2.9,4.5-5.6,3.6
		c-1.5-0.5-2.6-1.4-3.5-2.7c-0.3-0.5-0.6-1-1-1.6c-0.5,0.3-1,0.7-1.5,1c-1.4,0.8-2.9,1.5-4.6,1.5c-3.6,0-5.7-3.1-4.3-6.4
		C89,212,90.6,210.7,92.4,209.8z M85.1,88.1c-1.1-0.4-2.2-0.9-3.2-1.5c-1.1-0.6-2.2-1.3-3.3-2c-0.5-0.3-1-0.5-1.5-0.8
		c-0.1,0.1-0.2,0.2-0.4,0.3c0.4,1.5,0.9,3,1.4,4.5c0.2,0.7,0.6,1.5,0.9,2.2c0.2,0.5,0.3,0.9,0.4,1.4c0.1,0.8-0.2,1.5-0.9,1.9
		c-0.7,0.4-1.5,0.3-2.1-0.3c-0.5-0.4-0.9-0.9-1.2-1.5c-1.7-2.9-2.8-5.9-3.3-9.2c-0.5-3.3,1.8-5.5,5-4.7c1.2,0.3,2.4,0.8,3.5,1.5
		c2.1,1.3,4.1,2.8,6.2,4.2c0.2,0.2,0.5,0.4,0.7,0.6c0.7,0.8,0.9,1.8,0.4,2.6C87.2,88,86.1,88.5,85.1,88.1z M109.3,356.4
		c-0.8,0.3-1.7,0.4-2.6,0.5c-0.8,0.1-1.5,0-2.4,0c-0.3,0.9-0.5,1.7-0.8,2.4c-0.3,0.7-0.5,1.5-0.9,2.1c-0.7,1.2-1.8,1.7-3.2,1.6
		c-1.4-0.1-2.4-0.9-2.8-2.2c-0.4-0.9-0.5-2-0.8-3c-1-0.4-1.9-0.6-2.7-1.1c-1.7-0.8-2.4-2.2-2.2-3.7c0.2-1.5,1.4-2.5,3.3-2.8
		c0.5-0.1,0.9-0.1,1.6-0.2c-0.1-0.4-0.2-0.8-0.3-1.2c-0.2-0.6-0.4-1.3-0.5-1.9c-0.2-1.6,0.5-2.9,1.8-3.4c1.3-0.5,2.9-0.1,3.8,1.3
		c0.7,1.1,1.1,2.4,1.7,3.5c1.7,0.2,3.4,0.3,5.2,0.5c0.8,0.1,1.7,0.4,2.4,0.7c1.4,0.7,2.2,1.9,2.1,3.5
		C111.7,354.8,110.8,355.9,109.3,356.4z M169.6,340.8c-0.3,0.1-0.6,0.2-0.9,0.2c-5.1,0.4-10.3,0.8-15.5,0.5
		c-6.1-0.4-11.9-2.2-17.4-4.9c-0.5-0.3-1.1-0.5-1.8-0.9c-3.3,2-6.7,3.5-10.4,4.4c-2.9,0.7-5.8,1.4-8.9,1.3
		c-6.6-0.2-12.1-2.7-16.6-7.5c-1.5-1.7-2.6-3.6-3.2-5.8c-0.2-0.8-0.3-1.7-0.3-2.5c0-2.4,1.4-3.9,3.8-4.2c0.8-0.1,1.7-0.1,2.5,0
		c6,0.5,11.9,1.4,17.7,3.1c0.2,0.1,0.4,0.1,1,0.2c-0.6-0.7-0.9-1.1-1.3-1.6c-9.5-10.7-15.8-23-18.8-37c-0.6-2.7-0.6-5.5-0.9-8.2
		c-0.3-3-0.6-6.1-0.9-9.1c-0.2-1.9-1.2-3.5-2.3-5c-4.3-6-6.7-12.8-7.9-20.1c-0.3-2.1-0.3-4.2,0.2-6.3c0.9-3.4,3.2-5.3,6.6-5.2
		c2.6,0.1,5.2,0.5,7.9,0.8c0.6,0.1,1.2,0.2,1.8,0.3c2-3.4,4.8-5.6,8.3-7.1c3.7-1.5,7.4-1.5,10.7,0.7c4.9,3.2,9.8,6.5,14.6,9.9
		c1.5,1.1,2.7,2.5,3.9,3.9c1.6,1.8,2.4,4,2.3,6.5c0,1.1,0.3,1.8,1.1,2.5c2.3,2.1,4.1,4.7,5.1,7.7c0.9,2.8,0.6,5.4-1.2,7.8
		c-0.5,0.7-1.1,1.3-1.6,1.9c-1,1.1-1,1.1-0.4,2.5c0.5,1,1,1.9,1.5,2.9c0.8,1.5,1.5,3.2,1.6,4.9c0.4,5.6-4.7,9.4-10,7.3
		c-1.3-0.5-2.6-1.3-3.6-2.3c-2-1.7-3.8-3.6-5.8-5.3c-2.2-1.9-4.4-3.8-6.7-5.4c-3.7-2.6-7.9-3-12.2-2.4c-1,0.1-2,0.6-2.9,1
		c-0.4,0.2-0.8,0.6-0.9,1c-1,4.6-2,9.2-1.1,13.9c0.1,0.8,0.3,1.5,0.5,2.3c3.8,11.5,9.2,22.1,17,31.4c0.4,0.5,0.8,0.9,1.5,1.6
		c-0.8-2.6-1.5-4.8-2.2-7c-1.5-5.2-1.6-10.5-1.2-15.9c0.1-1.7,0.2-3.5,0.3-5.2c0-0.7,0.1-1.3,0.2-2c0.4-1.6,1.6-2.4,3.2-2.2
		c0.9,0.2,1.9,0.5,2.7,1c6.7,3.9,10.8,9.7,12.6,17.2c1,4.2,0.5,8.5-0.2,12.7c-0.6,3.7-1,7.4-0.9,11.1c0,1.3,0.5,2.2,1.8,2.8
		c4.5,2.1,9.3,3.2,14.2,3.4c3.9,0.1,7.8,0.1,11.7,0.1c0.5,0,1,0,1.4,0.1c1.1,0.2,1.8,1.1,1.8,2C171.2,339.7,170.6,340.5,169.6,340.8
		z M185,344.3c-2.5,0-4.4-1.9-4.4-4.4c0-2.5,2-4.4,4.4-4.4c2.5,0,4.5,2.1,4.5,4.6C189.4,342.6,187.7,344.3,185,344.3z M198.7,343.6
		c-1.7,0-3-1.4-3-3.1c0-1.7,1.3-3.1,3-3.1c1.8,0,3.1,1.4,3.1,3.2C201.8,342.3,200.4,343.6,198.7,343.6z M210.1,343.5
		c-1.3,0-2.6-1.3-2.6-2.7c0-1.3,1-2.3,2.3-2.3c1.4,0,2.6,1.3,2.5,2.7C212.3,342.5,211.3,343.5,210.1,343.5z M243.9,337.9
		c-0.2,3.3-1.1,6.4-2.6,9.3c-1.5,2.8-3.7,4.8-6.7,6.1c-3.6,1.5-6.8,0.6-9.1-2.5c-0.8-1-1.4-2.2-2-3.4c-0.7-1.5-1.2-3-1.9-4.5
		c-1.4-3.4-3.3-6.5-6.1-9c-1.7-1.5-3.4-3-5.1-4.6c-0.9-0.8-1.8-0.9-3-0.8c-3.3,0.5-6.5,1-9.8,1.1c-4.9,0.1-9.9,0.2-14.7-0.3
		c-16.1-1.6-27.1-11.4-29.5-27.8c-0.9-6.1,0.6-11.8,4.5-16.7c2.8-3.5,6.5-5.4,11-5.8c2.5-0.2,4.7,0.3,6.9,1.7
		c4.4,2.8,7.1,6.8,7.9,11.9c0.8,5.1-2.2,9.6-7.1,10.8c-2,0.5-3.8,0.2-5.5-0.9c-0.4-0.3-0.9-0.7-1.2-1.1c-0.5-0.8-0.1-1.7,0.9-1.9
		c0.6-0.1,1.2,0,1.8,0c5.1-0.1,7.5-3.2,5.9-8.1c-0.5-1.4-1.2-2.9-2.2-4c-4.3-5.1-11.5-4.3-14.8,1.5c-2.5,4.5-3,9.3-1.6,14.3
		c1.3,4.6,3.5,8.8,6.8,12.3c4.6,4.9,10.3,7.6,16.8,8.5c3.3,0.5,6.5,0.7,9.8,0.1c4.3-0.8,7.7-3.2,10.1-6.7c1.4-2.1,2.3-4.8,3.1-7.3
		c1.1-3.6,1.9-7.3,2.9-10.9c0.8-2.7,1.8-5.4,2.9-8.1c0.8-2,2.2-3.6,3.9-4.9c2.7-2,5.4-1.8,7.8,0.5c0.6,0.6,1.2,1.3,1.7,2.1
		c2.4,4.1,4.8,8.2,7,12.3c1,1.8,1.4,3.7,1.2,5.7c-0.1,0.7-0.2,1.4-0.4,2.2c1.6,1.1,3,2,4.4,3c2.3,1.7,3.8,4,4.5,6.7
		c0.6,2.1,0.3,4-0.8,5.9c-0.1,0.2-0.2,0.4-0.4,0.6c0,0,0,0.1-0.1,0.3C243.5,329.4,244.2,333.5,243.9,337.9z M281,270.9
		c-2.1,0-3.7-1.6-3.7-3.8c0-2.1,1.7-3.7,3.8-3.6c2.1,0,3.7,1.8,3.6,3.8C284.7,269.4,283,270.9,281,270.9z M287.5,253.8
		c-1.5-0.1-2.8-1.3-2.7-2.7c0.1-1.5,1.6-2.9,3.1-2.9c1.5,0,2.7,1.3,2.7,2.8C290.5,252.5,289,253.9,287.5,253.8z M294.6,235.7
		c-1.4,0-2.5-1.2-2.4-2.6c0.1-1.3,1.1-2.3,2.5-2.3c1.4,0,2.5,1.1,2.5,2.5C297.1,234.6,295.9,235.7,294.6,235.7z M354.1,156
		c-0.5,3.5-2.4,5.2-5.9,5.2c-2.6,0-5.3-0.3-7.9-0.4c-0.9,0-1.8,0-2.6,0.3c-3.5,1.3-6.6,3.2-9.3,5.7c-1.8,1.7-3.3,3.8-4.8,5.8
		c-1,1.3-1.9,2.8-2.8,4.2c0.1,0.1,0.2,0.2,0.2,0.3c2.4-1.4,4.8-2.8,7.3-4.2c0.5-0.3,0.9-0.6,1.4-0.8c1.5-0.6,2.9,0.1,3.1,1.7
		c0.1,0.8,0.1,1.7-0.1,2.5c-0.8,2.7-1.6,5.6-2.7,8.2c-1.5,3.2-3.9,5.7-7.6,6.2c-2.1,0.3-4.2,0.1-6.3,0c-1.2-0.1-2.4-0.3-3.7-0.5
		c-1.5,2.9-2.8,5.8-3.7,8.9c-1.1,3.8-1.8,7.6-1.8,11.5c0,0.7,0,1.3-0.1,2c-0.1,0.6-0.3,1.1-1,1c-0.4-0.1-0.9-0.5-1-0.8
		c-0.7-2.1-1.3-4.2-1.3-6.5c-0.1-5.5,1.5-10.7,3.7-15.6c2.2-4.9,5.2-9.3,8.3-13.7c2.4-3.4,4.7-6.9,7-10.4c2.1-3.2,3.5-6.7,4.8-10.2
		c0.8-2.3,1.4-4.6,0.8-7.1c-0.5-1.8-0.3-3.7,0.1-5.5c0.6-2.5,2.1-4.1,4.5-4.9c1.7-0.5,3.5-0.7,5.3-0.3c2.3,0.5,4,1.6,4.8,3.8
		c1.7,0.1,3.3,0.1,4.9,0.4c4.4,0.7,6.6,3.3,6.6,7.8C354.4,152.3,354.4,154.2,354.1,156z"/>
</g>
</svg>
