<?xml version="1.0" encoding="utf-8"?>
<!-- Generator: Adobe Illustrator 21.1.0, SVG Export Plug-In . SVG Version: 6.00 Build 0)  -->
<svg version="1.1" id="Calque_1" xmlns="http://www.w3.org/2000/svg" xmlns:xlink="http://www.w3.org/1999/xlink" x="0px" y="0px"
	 viewBox="0 0 432 432" style="enable-background:new 0 0 432 432;" xml:space="preserve">
<style type="text/css">
	.st0{fill:#3B4F20;}
	.st1{fill:#8CB225;}
	.st2{fill:#020203;}
	.st3{fill:#4A5C2D;}
	.st4{fill:#FFFFFF;}
	.st5{fill:#E2CF1B;}
	.st6{fill:#718A2A;}
	.st7{fill:#DFBB20;}
	.st8{fill:#EAC839;}
	.st9{fill:#1B1B1B;}
	.st10{fill:#8EC045;}
	.st11{fill:#066938;}
	.st12{fill:#E5AD30;}
	.st13{fill:#4E4D4D;}
	.st14{fill:#8BB226;}
	.st15{fill:#CD1A25;}
	.st16{fill:#4B6426;}
	.st17{fill:#7D9E3C;}
	.st18{fill:#3C4F20;}
	.st19{fill:#384A1F;}
	.st20{fill:#E7E6E6;}
	.st21{fill:#D4A624;}
	.st22{fill:#F7F0E3;}
	.st23{fill:#D2A206;}
	.st24{fill:#CE9835;}
	.st25{fill:#E5D9C2;}
	.st26{fill:#E2AE42;}
	.st27{fill:#EEDBBE;}
	.st28{fill:#F9EA31;}
	.st29{fill:#EB6518;}
	.st30{fill:#0A7132;}
	.st31{fill:#FFE109;}
	.st32{fill:#D76013;}
	.st33{fill:#BBA763;}
	.st34{fill:#7FA22A;}
	.st35{fill:#5B321B;}
	.st36{fill:#4A2615;}
	.st37{fill:#D6AD08;}
	.st38{fill:#F7BBBD;}
	.st39{fill:#D76324;}
	.st40{fill:#607829;}
	.st41{fill:#715C3B;}
	.st42{fill:#644F34;}
	.st43{fill:#89704C;}
	.st44{fill:#B2A38F;}
	.st45{fill:#A59076;}
	.st46{fill:#FFDE0D;}
	.st47{fill:#34AA4A;}
	.st48{fill:#75388D;}
	.st49{fill:#BBBBBB;}
	.st50{fill:#A9A9AA;}
	.st51{fill:#06993B;}
	.st52{fill:#CDCCCC;}
	.st53{fill:#4D2563;}
	.st54{fill:#E3B320;}
	.st55{fill:#0B9541;}
	.st56{fill:#264D23;}
	.st57{fill:#FDC834;}
	.st58{fill:#8C633A;}
	.st59{fill:#B5A059;}
	.st60{fill:#F2F2F2;}
	.st61{fill:#808181;}
	.st62{fill:#62A930;}
	.st63{fill:#A1C746;}
	.st64{fill:#85B04B;}
	.st65{fill:#5E802C;}
	.st66{fill:#BFD783;}
	.st67{fill:#EFC9AF;}
	.st68{fill:#343434;}
	.st69{fill:#EB5B28;}
	.st70{fill:#D1A98D;}
	.st71{fill:#E0A9B8;}
	.st72{fill:#754D24;}
	.st73{fill:#B2D17B;}
	.st74{fill:#62B338;}
	.st75{fill:#274E22;}
	.st76{fill:#CCDC81;}
	.st77{fill-rule:evenodd;clip-rule:evenodd;fill:#85B04B;}
	.st78{fill:#509733;}
	.st79{fill:#203F1E;}
	.st80{fill:#20963A;}
	.st81{fill:#62246B;}
	.st82{fill:#FDCA02;}
	.st83{fill:#B4CD50;}
	.st84{fill:#5C792A;}
	.st85{fill:#C29347;}
	.st86{fill:#4D5C22;}
	.st87{fill:none;}
	.st88{fill:#E19C11;}
	.st89{fill:#E5C997;}
	.st90{fill:#009245;}
	.st91{fill:#48AE4D;}
	.st92{fill:#049348;}
	.st93{fill:#04683B;}
	.st94{fill:#F8AE4C;}
	.st95{fill:#C57B39;}
	.st96{fill:#231F20;}
	.st97{fill:#BC2333;}
	.st98{fill:#EF7A7B;}
	.st99{fill:#46AE51;}
	.st100{fill:#07924B;}
	.st101{fill-rule:evenodd;clip-rule:evenodd;fill:#231F20;}
	.st102{fill:#279A9A;}
	.st103{fill:#8E3189;}
	.st104{fill:#9F6E8E;}
	.st105{fill:#3C3C3B;}
	.st106{fill:#00A69C;}
	.st107{fill:#D5DB41;}
	.st108{fill:#E04542;}
	.st109{fill:#9F1F3B;}
	.st110{fill:#EB5C35;}
	.st111{fill:#F9B233;}
	.st112{fill:#008D36;}
	.st113{fill:#F39200;}
	.st114{fill:#F2D8BD;}
	.st115{fill:#3AAA35;}
	.st116{fill:#95C11F;}
	.st117{fill:#7F5FA5;}
	.st118{fill:#5FA55F;}
	.st119{fill:#A55F8F;}
	.st120{fill:#229538;}
	.st121{fill:#622369;}
	.st122{fill:#FCC804;}
	.st123{fill:#628FB8;}
	.st124{fill:#B2B2B2;}
	.st125{fill:#63B8A4;}
	.st126{fill:#FDCE6C;}
	.st127{fill:#C8DADC;}
	.st128{fill:#ED6B6E;}
	.st129{fill:#EC6365;}
	.st130{fill:#8FC14D;}
	.st131{fill:#FECE6C;}
	.st132{fill:#037132;}
	.st133{fill:#B5CD25;}
	.st134{fill:#137E35;}
	.st135{fill:#7DBA28;}
	.st136{fill:#50AE32;}
	.st137{fill:#04612D;}
	.st138{fill:#F0828B;}
	.st139{fill:#63348B;}
	.st140{fill:#CF75AC;}
	.st141{fill:#895B7E;}
	.st142{fill:#AD94C4;}
	.st143{fill:#C581AB;}
	.st144{fill:#D1BAB0;}
	.st145{fill:#EF7B7C;}
	.st146{fill:#F7C0C2;}
	.st147{fill:#4F1C31;}
	.st148{fill:#9C3760;}
	.st149{fill:#A8768F;}
	.st150{fill:#A04170;}
	.st151{fill:#6CB863;}
</style>
<g>
	<path class="st55" d="M341,164.3c-3.5-9.8-10.1-16.8-19.7-20.9c-3.2-1.3-6.6-2.2-10-2.9c-6.4-1.3-12.9-2.2-19.5-2.2
		c-1.8,0-3.6-0.1-5.5-0.2c0.4-2.7,0.8-5.2,1.2-7.8c0.1-0.9,0.6-1.7,1.3-2.3c1.5-1.3,3-2.6,4.4-3.9c3.1-2.9,5.5-6.2,7.1-10.1
		c1.5-3.8,2-7.6,1-11.6c-2.3-9.2-11.1-16.9-20.6-17.9c-2.1-0.2-4.1-0.4-6.2-0.5c-0.7-0.1-1.2-0.4-1.5-1.1c-0.7-1.6-1.4-3.2-2.2-4.8
		c-1.8-3.6-4.7-6.1-8.5-7.6c-3.4-1.3-7-2-10.7-2.2c-6-0.4-12,0.2-18,1.1c-4.3,0.7-8.5,1.5-12.8,2.2c-5.4,0.8-10.7,0.7-15.9-1.1
		c-3.1-1-6.1-2.2-9.1-3.4c-6.6-2.7-13.3-3-20.2-1.7c-3.9,0.7-7.6,2-11.3,3.5c-3.2,1.3-6.6,1.6-10,1.2c-3.8-0.5-7.6-0.8-11.4-0.4
		c-7.3,0.7-14.1,3.1-20.2,7.2c-4.8,3.3-8.4,7.5-10.3,13.1c-0.1,0.2-0.2,0.5-0.3,0.7c-0.2,0.8-0.7,1.1-1.5,1.3
		c-2.1,0.5-4.2,0.9-6.3,1.5c-8,2.3-13.2,7.4-15.5,15.4c-1.2,4-1.3,8.2-0.6,12.3c1,6.3,4.1,11.4,9.6,14.9c0.5,0.3,1,0.7,1.6,1
		c0.2,0.2,0.5,0.3,0.7,0.6c-2.8,4.7-4.2,9.7-2.6,15.2c1.5,5.3,4.5,9.5,9.7,11.9c-1.4,8.5,1.4,14.8,9.1,18.9c0.1,0.5,0.2,1.1,0.3,1.6
		c0.7,7.3,1.4,14.6,2,21.9c0.6,7.9,0.9,15.8,1.3,23.8c0.4,8.2,0.8,16.4,1.1,24.6c0.5,10.6,0.6,21.2,0.4,31.9
		c-0.1,4.1-0.5,8.2-1.3,12.2c-0.9,4.4-2.6,8.5-4.5,12.5c-1,2.3-2.2,4.7-3.3,7c-1.5,3.2-2.8,6.6-3.5,10.1c-0.6,3-0.9,6-0.3,9
		c1,4.8,3.7,8.4,7.6,11.1c2.2,1.5,4.5,2.8,6.9,4c5.8,2.9,12,5,18.3,6.7c15.8,4.3,31.9,6.7,48.3,6.8c11.7,0.1,23.5,0,35.2,0
		c6.4,0,12.7-0.1,19-0.8c6.4-0.6,12.7-1.9,18.8-3.9c5.4-1.8,10.7-4,15.6-7.1c5.6-3.6,10.1-8.3,12.8-14.5c1.4-3.3,2.2-6.7,1.9-10.3
		c-0.2-1.9-0.6-3.8-1.1-5.7c-0.9-3.7-2.1-7.3-3-10.9c-0.9-3.7-1.2-7.4-1.1-11.2c0-2.2,0.8-3.6,3-4.6c10.2-4.7,19.1-11.3,27.1-19.1
		c2.6-2.5,5-5.2,7.2-8.1c5.5-7.2,8.9-15.3,11-24c2.7-11,4-22.3,5.2-33.5c0.5-4.3,0.9-8.7,1.3-13c0.4-5.1,0.9-10.3,1.1-15.4
		C344.2,177.8,343.4,170.9,341,164.3z M234.7,96.8c0.3-0.3,0.6-0.6,1-0.8c0.6-0.4,1.1-0.7,1.7-1c2.4-0.9,4.8-1.8,7.2-2.7
		c0.3-0.1,0.7-0.2,1.1-0.2c1.1-0.1,2.1,0.5,2.5,1.5c0.4,0.9,0.1,2-0.7,2.7c-0.4,0.3-0.9,0.6-1.4,0.8c-0.6,0.3-1.2,0.5-1.9,0.9
		c3.3,7.3,7,14.4,11.4,21.3c0.2-0.6,0.4-0.9,0.5-1.3c1.7-4.9,3.3-9.8,5-14.7c0.6-1.6,1.3-3.2,2-4.8c1.2-2.6,3-3.4,5.8-2.6
		c0.9,0.3,1.8,0.7,2.6,1.1c1.3,0.6,1.9,1.6,1.8,3c-0.1,1.3-0.3,2.6-0.6,3.8c-2.8,10.8-5.8,21.5-9.4,32.1c-2.2,6.5-4.4,13-6.6,19.6
		c-0.3,0.9-0.7,1.8-1.1,2.6c-0.8,1.7-2.4,2.5-4.2,2.2c-2.1-0.3-4.2-0.7-6.3-1.5c-0.8-0.3-1.4-0.8-1.4-1.7c0-0.9,0-1.7,0.2-2.6
		c1.8-6.9,4.1-13.6,6.6-20.2c0.6-1.6,1.2-3.3,1.8-4.9c0.2-0.6,0.2-1.1-0.1-1.8c-3.9-8.6-8.1-17-12.5-25.3c-0.4-0.7-0.7-1.4-1.1-2.2
		c-0.8,0.2-1.5,0.4-2.3,0.5c-1,0.1-1.9-0.4-2.3-1.2C233.8,98.5,234,97.6,234.7,96.8z M239.3,175.4c-0.2,0.4-0.4,0.8-0.6,1.2
		c-2,3.5-4.5,6.6-7.3,9.6c-0.4,0.4-0.9,0.8-1.5,1.1c-0.6,0.3-1.3,0.3-1.9-0.2c-0.5-0.5-0.6-1.1-0.4-1.7c0.2-0.5,0.4-0.9,0.6-1.3
		c1.6-2.5,3.3-5.1,5-7.6c0.8-1.1,1.8-2,2.8-3c0.3-0.3,0.7-0.5,1.1-0.6c1.1-0.4,2.3,0.4,2.3,1.8C239.5,174.9,239.4,175.2,239.3,175.4
		z M248.5,184.7c1.3-0.7,2.7-1.1,4-1.6c0.4-0.1,0.8-0.2,1.2-0.2c0.7,0,1.3,0.3,1.6,1c0.3,0.7,0.3,1.3-0.2,1.9
		c-0.3,0.4-0.6,0.7-1,0.9c-1.1,0.7-2.2,1.5-3.3,2.2c-2.5,1.4-5,2.7-7.6,4c-0.9,0.5-1.9,0.8-2.9,1.2c-0.5,0.2-1,0.2-1.2,0.3
		c-1.1,0-1.8-0.4-2.1-1.1c-0.3-0.8,0-1.5,0.6-2c0.5-0.5,1.1-0.9,1.7-1.2C242.4,188.2,245.4,186.4,248.5,184.7z M234.4,202.1
		c0.4-1,1.5-1.5,2.7-1.3c0.7,0.1,1.3,0.3,1.9,0.5c4.3,1.6,8.6,3.2,12.9,4.8c1.2,0.4,2.4,0.8,3.6,1.3c0.9,0.4,1.8,0.9,2.8,1.4
		c0.8,0.4,1.1,1,0.9,1.9c-0.2,0.8-0.8,1.3-1.5,1.4c-0.4,0.1-0.8,0.1-1.5,0.2c-0.9-0.2-2.1-0.4-3.2-0.8c-1.9-0.6-3.8-1.2-5.7-1.9
		c-3.4-1.2-6.7-2.5-10-3.7c-0.7-0.3-1.4-0.6-2-1C234.4,204.2,234,203.1,234.4,202.1z M218.5,109.4c0.6-0.4,1.3-0.8,2-1
		c2.6-0.5,5.2-0.9,7.8-0.2c0.6,0.2,1.3,0.4,1.9,0.6c6.9,3,12.1,11,11.9,18.6c0,1.6-0.3,3.1-0.9,4.6c-1.5,4.2-4.2,7.5-7.9,10
		c-1.3,0.9-2.9,1.5-4.5,1.8c0,0.4,0,0.6,0,0.9c0.4,4.9,0.8,9.8,1.2,14.6c0.1,0.7,0.1,1.3,0.1,2c0,1.4-0.6,2.5-1.9,3.1
		c-1.6,0.8-3.3,1-5.1,0.8c-1.4-0.2-2.2-1-2.5-2.4c-0.2-1-0.4-2-0.5-2.9c-0.7-6.7-1.4-13.4-1.9-20.1c-0.2-2.8-0.2-5.6-0.3-8.3
		c-0.2-4.4-0.4-8.9-0.6-13.3c-0.1-2.2-0.1-4.3-0.1-6.5C217.3,110.7,217.7,109.9,218.5,109.4z M216.5,243.9c0,0.1,0,0.2,0.1,0.4
		c0.5,2.9-1,4-3.3,4.5c-1.9,0.4-3.9,0.4-5.8,0.1c-1.4-0.2-2.3-0.9-2.6-2.2c-0.6-2.2-1.2-4.4-1.7-6.6c-1.1-5.7-2-11.5-3-17.3
		c-0.8-5-1.6-10-2.3-15c-1-6.4-1.9-12.8-2.8-19.2c0-0.1-0.1-0.2-0.1-0.5c-0.8,0-1.5,0.1-2.2,0c-1.1-0.1-1.9-0.8-2-1.7
		c-0.2-0.9,0.2-1.8,1.3-2.3c1-0.5,2.2-0.9,3.3-1.2c4.3-1.2,8.7-2,13.2-2.2c0.6,0,1.3-0.1,1.9,0.1c1.1,0.2,1.9,1.1,2,2.1
		c0.1,0.9-0.6,1.8-1.6,2.3c-0.4,0.2-0.9,0.2-1.3,0.3c-1.2,0.2-2.4,0.3-3.6,0.4c0.4,1.7,0.9,3.2,1.2,4.8c0.8,4.4,1.4,8.8,2.2,13.1
		c1.4,7.6,2.8,15.2,4.2,22.8C214.4,232.2,215.5,238,216.5,243.9z M192.6,241.8c-0.1-2.7-0.8-5.2-2-7.5c-1.5-2.6-3.2-5-5.2-7.3
		c-3.7-4.2-7.4-8.3-11.1-12.4c-2.8-3.2-5.4-6.5-7.4-10.3c-1.3-2.4-2.2-4.9-2.3-7.7c-0.2-4.3,0.9-8.2,4.1-11.2
		c3.4-3.2,7.3-3.7,11.5-2.1c3.1,1.2,5.2,3.5,6.8,6.3c0.5,0.8,0.9,1.6,1.3,2.4c0.5,1,0.3,1.9-0.6,2.6c-0.8,0.7-1.6,0.6-2.5-0.1
		c-1.2-1.1-2.3-2.3-3.6-3.3c-0.8-0.6-1.7-1-2.6-1.3c-3-1-5.2,1.4-4.8,4.2c0.1,1.1,0.5,2.1,0.8,3.1c0.7,1.8,1.7,3.4,3,4.8
		c1.9,2.2,3.9,4.3,5.9,6.4c3.6,3.7,6.8,7.7,9.5,12.1c3,4.9,5.2,10,5.9,15.8c0.8,6.6-1.3,12.1-6.1,16.6c-2.1,2-4.6,3.2-7.6,2.6
		c-3.7-0.8-6.7-2.8-8.7-6.1c-0.4-0.7-0.8-1.4-1.2-2.2c-0.4-0.9-0.3-1.6,0.5-2.2c2-1.6,3.3-1.2,4.5,0.3c0.8,0.9,1.5,1.9,2.3,2.8
		c1.6,1.8,4.5,2.1,6.4,0.2C191.3,246.6,192.7,244.5,192.6,241.8z M184.1,92.8c5.5-3.5,11.2-4.9,17.3-1.6c6.7,3.6,11.3,9.1,12.9,16.6
		c0.7,3.3,0.6,6.6-0.2,9.9c-0.5,2.1-1.2,4.1-2.1,6.1c-1.6,3.6-3.6,6.9-7.2,9.1c1.1,3.5,2.2,6.9,3.3,10.3c0.8,2.6,1.7,5.1,2.6,7.7
		c0.9,2.8-0.1,5-2.7,6.2c-1.4,0.6-2.9,0.9-4.5,1c-1.5,0.1-2.6-0.5-3.4-1.7c-0.5-0.9-1-1.8-1.3-2.8c-1.8-4.7-3.2-9.6-4.5-14.5
		c-1.9-6.9-4-13.8-6-20.7c-1.6-5.7-3.1-11.5-4.6-17.3c-0.3-1.1-0.6-2.2-0.8-3.3c-0.1-0.6-0.2-1.3-0.3-2
		C182.3,94.5,182.9,93.5,184.1,92.8z M160.7,147.9c0.3-3.7,0.5-7.4,0.8-11c0.3-4,0.8-7.9,1.1-11.9c0.1-1.6,0.2-3.1,0.4-4.7
		c0.2-2.1,0.4-4.2,0.6-6.3c0.2-1.7,1-2.6,2.8-2.9c1.5-0.2,3.1-0.2,4.7-0.3c0.6,0,1.2,0.1,1.7,0.1c1,0.1,1.8,0.5,2.3,1.4
		c0.3,0.5,0.6,1.1,0.8,1.7c1.6,4.6,3.2,9.2,4.9,13.8c3.9,10.7,7.8,21.4,11.7,32c0.4,1,0.8,2.1,1.2,3.2c1-0.3,1.9-0.6,2.8-0.8
		c0.4-0.1,0.8-0.2,1.2-0.1c0.9,0.1,1.5,0.6,1.8,1.5c0.3,0.8-0.1,1.6-0.7,2.1c-0.2,0.2-0.5,0.4-0.8,0.5c-2.7,1.2-5.4,2.3-8.3,2.9
		c-0.6,0.1-1.2,0.1-1.7,0.1c-0.8,0-1.3-0.4-1.6-1.1c-0.3-0.7,0-1.3,0.5-1.8c0.6-0.5,1.3-0.9,2-1.4c-1.3-3.5-2.6-6.9-4-10.4
		c-4.1,1.6-8.2,2.5-12.5,3.2c-0.2,1.8-0.4,3.6-0.6,5.4c-0.1,0.7-0.1,1.4-0.2,2.1c-0.2,1.5-1,2.6-2.4,3.3c-2,1-4.2,1.2-6.4,0.9
		c-1.3-0.1-2.1-0.9-2.4-2.2c-0.2-0.6-0.2-1.3-0.3-2C160,159.5,160.3,153.7,160.7,147.9z M156.3,227.5c0.6,0.9,0.6,2.1-0.2,3
		c-0.3,0.4-0.8,0.8-1.2,1c-5.5,3-10.9,5.9-16.4,8.9c-1.2,0.6-2.5,1.1-4,1.2c-0.3-0.1-0.7-0.1-1.1-0.3c-1-0.5-1.3-1.4-0.8-2.4
		c0.2-0.4,0.5-0.7,0.9-1.1c0.4-0.4,0.8-0.7,1.3-1c5.6-3.6,11.4-6.9,17.4-9.8c0.4-0.2,0.9-0.4,1.4-0.5
		C154.6,226.2,155.7,226.6,156.3,227.5z M131.7,216.3c1.3-0.4,2.6-0.7,4-0.9c3.4-0.5,6.7-0.1,10,0.3c0.8,0.1,1.6,0.4,2.4,0.7
		c0.8,0.4,1.4,1.1,1.3,2.1c-0.1,1-0.7,1.7-1.6,2c-0.8,0.2-1.7,0.3-2.6,0.4c-1.3,0.1-2.6,0-3.8,0c0,0,0-0.1,0-0.1
		c-2.3-0.2-4.5-0.3-6.8-0.5c-0.9-0.1-1.8-0.3-2.7-0.5c-0.8-0.2-1.5-0.8-1.5-1.8C130.3,217.1,130.9,216.5,131.7,216.3z M128.9,193.8
		c-0.5-0.8-0.4-1.7,0.1-2.3c0.6-0.7,1.4-1,2.3-0.6c1.1,0.5,2.3,1,3.3,1.8c2.3,1.7,4.6,3.6,6.8,5.4c2.3,1.9,4.6,3.7,6.9,5.6
		c0.5,0.4,1.1,0.9,1.5,1.4c0.3,0.4,0.5,1,0.7,1.2c0,1.6-1,2.6-2.4,2.3c-0.9-0.2-1.7-0.6-2.4-1.2c-3.4-2.6-6.8-5.2-10.1-7.8
		c-1.7-1.4-3.4-2.8-5-4.3C129.8,194.9,129.3,194.4,128.9,193.8z M120.8,170.4c-0.9-3.8-1.7-7.5-2.5-11.3c-1.2-6-2.4-12-3.4-18.1
		c-1-6-1.7-12.1-2.6-18.1c-0.2-1.4-0.2-2.8-0.4-4.2c-0.2-1.5,0.3-2.5,1.7-3.1c1.4-0.5,2.9-0.8,4.3-1.1c0.2-0.1,0.5,0,0.7-0.1
		c2-0.2,3.2,0.4,3.9,2.3c0.7,1.9,1.1,3.8,1.5,5.8c2,9.7,3.9,19.4,5.8,29.2c0.1,0.4,0.2,0.7,0.3,1.2c3.2-0.4,6.3-0.7,9.5-1.1
		c-0.2-1.6-0.4-3.1-0.6-4.6c-0.9-6.6-1.8-13.2-2.7-19.7c-0.7-5-1.6-9.9-2.3-14.9c-0.5-3.4-0.9-6.8-1.2-10.3c-0.1-0.7,0-1.4,0.1-2.1
		c0-1,0.6-1.8,1.5-2.1c1.7-0.5,3.5-1,5.2-1.1c2.1-0.2,3.3,1.1,3.8,3.2c0.6,2.9,1.2,5.8,1.7,8.7c1.9,9.3,3.3,18.6,4.6,28
		c1,7.3,2.3,14.5,3.8,21.7c0.5,2.5,0.9,5,1.2,7.5c0.1,0.7,0,1.4-0.1,2.1c-0.3,1.4-1.2,2.3-2.7,2.6c-1.6,0.3-3.2,0.5-4.8,0.7
		c-2.2,0.3-3.7-0.6-4.3-2.8c-0.7-2.5-1.2-5.1-1.7-7.7c-0.3-1.7-0.6-3.5-0.9-5.4c-3.1,0.4-6.1,0.7-9.3,1.1c0.3,1.4,0.5,2.6,0.8,3.9
		c0.6,2.6,1.2,5.3,1.8,7.9c0.6,2.6-0.3,4.2-2.9,4.8c-2.1,0.5-4.3,0.6-6.4,0.4C122.3,173.6,121.3,172.5,120.8,170.4z M162.7,288.2
		c-0.7,3.5-1.7,6.9-3.2,10.2c-1.8,3.9-4.2,7.4-7.7,9.9c-2.8,2.1-6.1,3-9.6,2.8c-2.1-0.1-4-0.6-5.7-1.8c-0.1-0.1-0.3-0.1-0.5-0.2
		c-0.2,1.8-0.3,3.5-0.6,5.1c-0.7,5.6-1.4,11.1-2.2,16.7c-0.2,1.6-0.4,3.1-0.6,4.7c-0.1,0.7-0.3,1.5-0.6,2.1
		c-0.6,1.5-1.8,2.2-3.4,1.9c-1.4-0.3-2.9-0.7-4.2-1.4c-1.3-0.7-1.8-2.1-1.7-3.6c0.2-2.7,0.4-5.5,0.6-8.2c0.7-7.3,1.5-14.6,2.3-21.9
		c0.8-8,1.7-15.9,2.6-23.9c0.5-4.3,1.2-8.6,1.8-12.9c0.5-3.2,0.9-6.3,1.4-9.5c0.2-1.1,0.5-2.2,0.8-3.2c0.7-1.9,1.8-2.6,3.9-2.3
		c1.1,0.2,2.2,0.4,3.3,0.6c1.7,0.5,2.4,1.6,2.2,3.4c-0.4,2.9-0.7,5.8-1,8.7c0,0.2,0,0.4,0,0.7c0.4-0.4,0.7-0.7,1-1
		c2.1-2.2,4.4-3.9,7.3-4.9c4.3-1.5,8.2-0.3,10.9,3.3c2.2,2.9,3.3,6.2,3.7,9.8C164.2,278.3,163.6,283.2,162.7,288.2z M169.9,302.4
		c-0.7,7.6-0.7,15.2-0.6,22.8c0,1.2,0.1,2.5,0,3.7c0,0.6-0.1,1.2-0.4,1.8c-0.3,0.8-1,1.3-2,1.3c-0.9,0-1.6-0.4-2-1.3
		c-0.2-0.4-0.3-0.8-0.3-1.2c-0.3-2.8-0.7-5.7-0.7-8.5c0-4,0.1-8.1,0.5-12.1c0.8-8.1,2.2-16.2,3.9-24.2c0.9-4.2,2.1-8.3,4-12.2
		c0.9-1.8,1.9-3.6,3.2-5.2c1.3-1.4,2.8-2.4,4.8-2.3c1.3,0,2.5,0.6,3.5,1.4c1.4,1.1,2.4,2.4,3.1,4c1.4,2.8,2.2,5.8,2.8,8.9
		c1,4.4,1.4,8.9,1.7,13.3c0.3,4.2,0.7,8.4,0.9,12.5c0.2,2.9,0.2,5.9,0.3,8.8c0,2.2-1,3.4-3.1,3.6c-1.3,0.2-2.6,0.1-3.8,0.1
		c-1.3-0.1-2.1-0.9-2.4-2.2c-0.2-1-0.4-2-0.5-3.1c-0.2-2.8-0.4-5.6-0.6-8.4c0-0.6-0.1-1.1-0.2-1.8c-4,0.1-7.9-0.5-11.9-1.2
		C170,301.6,169.9,302,169.9,302.4z M198.9,354.8c-1.9,1.4-4.1,2.2-6.2,3c-1.7,0.6-3.4,1-5.2,1.4c-2.3,0.4-4.2-0.6-4.7-2.9
		c-0.4-1.8-0.6-3.6-0.7-5.4c-0.2-3.7-0.3-7.4-0.4-10.6c0.1-4.2,0.2-7.9,0.3-11.7c0-0.7,0.2-1.5,0.4-2.2c0.5-1.6,1.6-2.5,3.2-2.7
		c1.4-0.2,2.7,0,4,0.4c3.9,1.3,7.2,3.4,9.7,6.6c2.4,3,4.4,6.3,5.1,10.2C205.5,346.7,203.6,351.4,198.9,354.8z M209,292.8
		c0.1,3.1,0.3,6.2,0.4,9.3c0,1.8,0,3.6-0.2,5.3c-0.2,2-0.9,2.9-3,3.3c-1.2,0.2-2.5,0.4-3.7,0.3c-1.9-0.1-2.7-1-3.2-2.9
		c-0.8-3-1-6-1.1-9.1c-0.2-6-0.4-11.9-0.6-17.9c-0.1-1.9,0-3.8-0.1-5.7c0-0.4,0-0.8,0-1.3c-0.8-0.2-1.6-0.3-2.4-0.5
		c-0.5-0.1-1-0.3-1.4-0.6c-1-0.7-1-1.9,0-2.4c0.7-0.4,1.5-0.6,2.3-0.7c4.9-0.4,9.8-0.8,14.7-0.5c0.6,0,1.3,0.2,1.8,0.5
		c1.1,0.6,1.1,2,0.1,2.6c-0.5,0.3-1.1,0.5-1.7,0.6c-0.8,0.2-1.7,0.3-2.6,0.4c-0.1,0-0.1,0.1-0.3,0.2
		C208.7,280.1,208.7,286.5,209,292.8z M232.6,356.8c-0.5,1-1.4,1.6-2.6,1.6c-1.4,0-2.7,0-4.1-0.2c-1.6-0.2-2.7-1.3-3.1-2.9
		c-0.3-1.1-0.4-2.3-0.6-3.4c-0.2-1.3-0.3-2.5-0.5-3.8c-1.9-0.2-3.8-0.3-5.6-0.5c0,1.6,0,3,0,4.4c0,1.9,0.1,3.9,0.2,5.8
		c0,1.2-0.6,2.2-1.4,2.4c-1,0.2-2.5-0.4-2.9-1.4c-0.3-0.9-0.6-1.9-0.6-2.9c-0.1-2.6-0.1-5.2,0-7.8c0.1-3.2,0.1-6.5,0.3-9.7
		c0.2-3.3,0.6-6.6,1.1-9.9c0.3-1.9,0.8-3.8,1.3-5.7c0.2-0.8,0.7-1.5,1.1-2.2c2-3.5,6.8-3.3,8.9-1.2c1.1,1.1,2.1,2.4,3,3.7
		c2.1,3.2,3.3,6.9,4.2,10.6c1.4,6,2.2,12.2,2.2,18.4c0,0.6,0,1.2,0.1,1.7C233.5,354.8,233.1,355.8,232.6,356.8z M233.9,304
		c-0.1,0.6-0.7,1.3-1.3,1.3c-0.7,0-1.4,0-2.1-0.2c-1.8-0.4-3.6-0.8-5.5-1.3c0,0.3,0,0.6-0.1,0.9c-0.3,1.7-1.3,2.7-3,3
		c-1.3,0.2-2.5,0.1-3.7-0.2c-1.4-0.3-2.4-1.2-2.7-2.6c-0.3-1.4-0.6-2.8-0.6-4.2c0-5.1,0-10.2,0.1-15.3c0.1-3.9,0.4-7.7,0.5-11.6
		c0.1-3.3,2-5.4,5.3-5.6c3.4-0.3,6.2,1,8.5,3.4c3.5,3.7,4.2,8.1,2.7,12.8c-1.1,3.5-3.2,6.4-6.1,8.6c-0.2,0.2-0.4,0.3-0.6,0.5
		c0,0,0,0.1-0.1,0.1c0.5,3.4,2.5,5.9,5.3,7.7c0.5,0.3,1.1,0.4,1.6,0.6c0.3,0.1,0.6,0.2,0.9,0.4C233.7,302.9,234,303.4,233.9,304z
		 M236.5,240.1c-0.4,0.6-0.7,1-1,1.4c-0.7,1.1-1.5,1.9-2.7,2.6c-1.5,0.8-3.1,1.1-4.6,0.1c-1.6-1-1.9-2.6-1.8-4.4
		c0-0.8,0.2-1.6,0.3-2.5c-0.6-0.1-1.1-0.1-1.6-0.3c-2.6-0.7-3.9-3.1-3-5.6c0.8-2.3,2.5-3.7,5-4.2c0.3-0.1,0.6-0.1,1.1-0.2
		c-0.3-0.4-0.4-0.7-0.6-0.9c-1-1.3-1.8-2.8-2.2-4.4c-0.6-3.2,1.7-5.4,4.9-4.5c1.5,0.4,2.8,1.2,3.8,2.5c0.1,0.2,0.3,0.3,0.5,0.5
		c0.4-0.5,0.7-1,1-1.5c0.6-0.8,1.3-1.4,2.3-1.7c2.1-0.5,4,0.9,4.2,3.1c0.1,1.4-0.4,2.7-0.9,4c-0.1,0.4-0.3,0.7-0.5,1.3
		c0.6-0.2,1.1-0.4,1.5-0.5c1.5-0.5,3-0.7,4.5-0.5c0.4,0,0.7,0.1,1.1,0.2c2.5,0.9,3.1,3.5,1.3,5.3c-0.6,0.6-1.4,1.1-2.1,1.6
		c0.2,0.2,0.5,0.5,0.7,0.8c0.4,0.5,1,1.1,1.3,1.7c1.6,2.7-0.1,5.9-3.2,6.1c-1.7,0.1-3.2-0.4-4.6-1.3c-0.6-0.4-1.2-1-2-1.5
		c0,0.4,0,0.6,0,0.9c0.2,2.6,0.5,5.1,0.7,7.7c0.1,1,0,2.1-0.1,3.1c0,0.9-0.5,1.5-1.3,1.9c-0.5,0.3-1,0.5-1.6,0.7
		c-0.7,0.3-1.5,0.3-2.1-0.3c-0.6-0.6-0.5-1.3-0.3-2.1c0.5-1.5,1.1-3,1.5-4.6C236.6,243.3,236.6,241.8,236.5,240.1z M242.2,304.7
		c-0.5,0.1-1.1,0.2-1.6,0.2c-1.8,0.2-3.1-0.6-3.6-2.4c-0.4-1.4-0.6-2.8-0.7-4.3c-0.4-6.9-0.8-13.7-1.2-20.6c0,0-0.1,0-0.1,0
		c0-1.5,0-2.9,0-4.4c0.1-2.9,3-4.5,5.5-2.9c1,0.6,1.4,1.6,1.5,2.7c0.3,2.4,0.7,4.8,0.9,7.3c0.5,5.3,0.9,10.7,1.3,16
		c0.1,1.7,0.2,3.3,0.3,5C244.8,303.1,243.9,304.3,242.2,304.7z M260.6,317c-0.7,3-1.4,6-2.1,9c-2.1,8.7-4.3,17.4-6.5,26.1
		c-0.2,0.8-0.4,1.6-0.7,2.4c-0.4,1.2-1.2,2-2.4,2.4c-2.2,0.7-4.4,0.4-6.5-0.5c-0.9-0.4-1.4-1.2-1.4-2.2c0.1-1.2,0.1-2.4,0.4-3.6
		c1.1-4.5,2.3-9.1,3.5-13.6c0.3-1.1,0.2-1.9-0.6-2.8c-3.1-3.7-5.8-7.8-7.9-12.2c-0.7-1.4-1.2-2.9-1.8-4.4c-0.2-0.5-0.2-1.1-0.2-1.6
		c0.1-1.4,1.6-2,2.7-1.2c0.4,0.3,0.8,0.7,1.1,1.2c0.7,1.1,1.3,2.2,1.9,3.4c1.6,3.2,3.6,6.2,5.7,9.2c0.1,0.2,0.3,0.3,0.5,0.5
		c1.3-5,2.6-9.8,3.8-14.6c0.4-1.8,1.4-2.8,3.2-3c1.4-0.2,2.9-0.3,4.3-0.4c1.4-0.1,2.4,0.9,2.9,2.3
		C260.8,314.6,260.9,315.8,260.6,317z M263.1,293.9c-0.8,1.2-1.5,2.5-2.4,3.6c-0.7,0.9-1.5,1.7-2.4,2.3c-1.7,1.2-3.5,1.2-5.3,0.2
		c-2.3-1.2-3.9-3.1-5-5.5c-0.9-1.9-1.4-3.8-1.6-5.8c-0.5-4.2-0.5-8.4,0.6-12.5c0.3-1.1,0.8-2.2,1.3-3.2c1.5-2.5,3.7-3.5,6.5-3
		c1.6,0.3,3.1,0.9,4.4,1.8c0.5,0.4,0.9,0.9,1.3,1.5c0.3,0.4,0.3,0.9-0.1,1.2c-0.3,0.2-0.8,0.2-1.1,0.2c-0.9-0.1-1.8-0.4-2.6-0.6
		c-0.9-0.1-1.2,0-1.3,0.9c-0.2,1.6-0.4,3.2-0.2,4.8c0.4,4.1,1.1,8.2,2.4,12.2c0.2,0.7,0.4,1.4,1.4,1.7c0.5-0.6,1-1.2,1.5-1.8
		c0.9-1,1.6-1.2,2.4-0.7C263.7,291.9,263.8,292.8,263.1,293.9z M280.2,296.1c-0.8,0.4-1.7,0.2-2.3-0.6c-0.3-0.4-0.5-0.8-0.9-1.2
		c-0.3-0.3-0.5-0.6-0.8-0.9c-0.9-0.9-1.8-1.8-2.8-2.8c-0.3,0.5-0.1,1-0.1,1.5c0.2,1.2,0.4,2.5,0.5,3.7c0.2,1.9-0.6,3.1-2.4,3.6
		c-1.6,0.4-3.1-0.2-3.7-1.9c-0.7-2-1.2-4-1.5-6c-0.8-4.7-0.9-9.4-1-14.1c-0.1-2-0.1-4.1-0.2-6.1c0-1.6,0.6-2.6,1.9-2.9
		c1.6-0.4,3,0.1,3.8,1.4c0.7,1.1,0.9,2.4,1,3.7c0.2,2.1,0.4,4.2,0.5,6.3c0,0.4,0.1,0.7,0.2,1.3c0.3-0.4,0.6-0.6,0.8-0.8
		c2.1-2.9,2.9-6.1,2.1-9.6c-0.1-0.3-0.1-0.6-0.2-0.9c0-0.9,0.6-1.4,1.4-1.1c0.8,0.2,1.3,0.9,1.7,1.6c0.9,1.7,1,3.5,0.8,5.3
		c-0.3,2.2-1.1,4.2-2.5,6c-0.9,1.3-2,2.4-3,3.7c0,0,0,0.1,0.1,0.2c3.3,1.8,5.3,4.7,7,7.9c0.1,0.2,0.2,0.4,0.2,0.6
		C281.3,294.7,281,295.6,280.2,296.1z M285.9,272.2c-0.1,0.8-0.7,1.5-1.5,1.6c-0.8,0.2-1.6-0.3-1.9-1c-0.2-0.4-0.2-0.9-0.3-1.3
		c-0.2-0.7-0.5-1.5-0.7-2.2c-0.2-0.6-0.6-1.1-0.8-1.7c-0.3-0.9,0.2-1.6,1.1-1.9c1.2-0.3,2.5,0.2,3.2,1.3c0.8,1.2,1.1,2.6,1,4
		C285.9,271.4,286,271.8,285.9,272.2z M287.2,259.2c-0.9,0.6-1.8,1.3-2.7,1.9c-0.4,0.3-0.9,0.5-1.4,0.8c0-1.9-0.1-3.6,0-5.3
		c0.2-4.1,0.4-8.3,0.7-12.4c0.4-7,0.8-13.9,1.1-20.9c0.1-2.5,0.2-5.1,0.3-7.6c0.2-8.2,0.3-16.3,0.5-24.5c0.1-5.1,0-10.2-0.6-15.3
		c-0.1-0.6-0.2-1.2-0.3-2.1c0.6-0.2,1.1-0.4,1.6-0.4c2.4-0.1,4.9-0.2,7.3-0.2c3.5,0,7,0.3,10.4,1c2.9,0.6,4.5,2.1,5.1,5
		c0.5,2.5,0.8,5.1,0.9,7.6c0.4,8.9-0.4,17.6-1.9,26.4c-1.4,8.1-3.3,16-6.3,23.6c-1.9,4.9-4.2,9.7-7,14.1
		C292.9,254.3,290.4,257.1,287.2,259.2z M301.8,284.5c-3.5,2.6-6.9,2.3-10.2-0.1c-0.1-0.1-0.2-0.2-0.3-0.2c-0.6-0.6-0.8-1.3-0.5-1.9
		c0.3-0.7,1-1,1.7-1c0.8,0.1,1.5,0.3,2.3,0.5c0.4,0.1,0.8,0.1,1.3,0.2c-0.3-1.4-0.9-2.5-1.6-3.5c-1.4-2-2.8-4-4.3-6
		c-0.7-0.9-1.2-1.9-1.4-3c-0.5-2.7,1.6-5.8,5-5.5c1.8,0.2,3.4,0.6,5,1.5c0.7,0.4,1.2,0.9,1.5,1.6c0.4,1.2-0.3,2.1-1.5,2
		c-0.5-0.1-1-0.2-1.4-0.3c-0.1,0.1-0.2,0.1-0.2,0.2c0.4,0.6,0.8,1.2,1.2,1.7c1.2,1.3,2.4,2.6,3.7,3.9c1.1,1.2,1.8,2.6,2.1,4.2
		C304.5,281,303.7,283.1,301.8,284.5z M306,256.5c-1.1-0.5-1.7-1.6-1.5-3c0.1-0.9,0.3-1.7,0.6-2.5c3.1-7.6,5.1-15.5,7-23.5
		c1.4-5.9,2.2-11.8,3-17.8c0.9-6.6,1.3-13.3,1.5-20c0.1-3.9-0.3-7.7-1.3-11.5c-0.3-1.3-0.8-2.6-1.4-3.9c-1.5-3.3-4-5.5-7.3-6.9
		c-2.6-1.1-5.3-1.7-8-2.1c-3.4-0.6-6.8-0.9-10.3-0.7c-1.3,0.1-2.6,0.2-3.9,0.2c-0.9,0-1.8,0-2.7-0.1c-0.4,0-0.9-0.2-1.3-0.4
		c-0.9-0.5-1.1-1.6-0.2-2.3c0.7-0.5,1.5-0.9,2.4-1c2.1-0.4,4.2-0.9,6.4-0.9c6-0.2,11.9,0.4,17.6,2c8,2.2,12.8,7.5,14.7,15.5
		c1.2,4.9,1.5,9.9,1.1,15c-0.3,4-0.6,7.9-1.2,11.9c-1.1,8-2.3,16-3.7,24c-1.5,8.3-4,16.4-7,24.4c-0.4,1-0.9,1.9-1.5,2.7
		C308.2,256.7,307,257,306,256.5z M335.4,207.3c-0.5,6.4-1.6,12.8-2.9,19.1c-1.4,7.2-3,14.3-5.2,21.3c-2.5,7.9-6.6,14.9-11.9,21.3
		c-0.6,0.7-1.4,1.3-2.3,1.6c-1.7,0.5-3.1-0.7-3-2.4c0.1-0.9,0.5-1.7,1-2.4c0.6-0.7,1.1-1.3,1.7-2c4.7-5.7,7.8-12.3,9.7-19.4
		c2.6-9.4,4.6-19,5.8-28.8c1.2-9.5,1.5-19.1,1.1-28.7c-0.2-6.6-1.1-13.1-3.4-19.3c-0.8-2.2-1.9-4.3-3.4-6c-0.8-0.9-1.8-1.8-2.8-2.5
		c-3.6-2.6-7.8-4-12.2-4.9c-5.8-1.1-11.7-1.6-17.6-1.7c-2.4,0-4.7-0.1-7.1-0.3c-0.6,0-1.2-0.2-1.7-0.5c-1-0.5-1.2-1.6-0.2-2.3
		c0.7-0.5,1.6-1,2.4-1.1c2.1-0.3,4.3-0.6,6.4-0.7c7.4-0.2,14.7,0.3,21.9,1.9c3.2,0.7,6.4,1.9,9.3,3.4c4.9,2.6,8.2,6.6,10.5,11.6
		c1.6,3.6,2.6,7.3,3.3,11.2c0.9,5.1,1.1,10.2,1.2,15.4C335.9,196.4,335.8,201.9,335.4,207.3z"/>
	<path class="st55" d="M149,270c-1.2-1.4-2.2-1.7-4-1.1c-1,0.3-1.9,0.9-2.6,1.6c-2.5,2.6-3.8,5.7-4.3,9.2
		c-0.7,5.8-1.4,11.5-2.2,17.3c-0.3,2.7-0.3,2.8,1.5,4.7c2.7,2.9,6.4,2.8,9-0.2c1.1-1.3,1.7-2.7,2.2-4.3c1.2-4.3,2.1-8.7,2.5-13.2
		c0.1-1.6,0.3-3.2,0.5-4.7c-0.2-1.6-0.2-3.1-0.4-4.5C150.9,273.1,150.2,271.4,149,270z"/>
	<path class="st55" d="M175.4,128.4c-0.1,0-0.1,0-0.2,0c-0.7,8.3-1.5,16.6-2.2,24.9c2.5-0.3,8.6-2,10.3-2.9
		C180.7,143.1,178,135.7,175.4,128.4z"/>
	<path class="st55" d="M203.4,126.9c0.2-0.2,0.5-0.5,0.7-0.7c2.5-3.1,4.1-6.6,4.9-10.5c0.5-2.6,0.5-5.3-0.3-7.9
		c-1.6-5.4-5-9.4-9.8-12.2c-1-0.6-2.1-0.9-3.1-1.2c-1.2-0.3-2.4-0.4-3.6-0.1c4,10.9,7.4,21.8,11,32.8
		C203.2,127,203.3,126.9,203.4,126.9z"/>
	<path class="st55" d="M179.7,284.6c-0.5-2.9-0.9-5.8-1.5-8.7c-0.2-1-0.6-2-0.8-3.1c-2.4,3.7-3.6,7.7-4.5,11.8
		c-1,4.1-1.7,8.3-2.4,12.6c3.8,0,7.4,0,11.1,0c-0.1-0.6-0.1-1.1-0.2-1.6C180.8,291.9,180.3,288.2,179.7,284.6z"/>
	<path class="st55" d="M230.8,137.8c4.1-2.6,7.1-8.4,5.6-13.9c-1.2-4.3-3.5-7.9-7.5-10.1c-0.6-0.3-1.3-0.6-2.1-0.9
		c1.1,8.7,1.1,17.2,1.8,25.8C229.4,138.7,230.1,138.3,230.8,137.8z"/>
	<path class="st55" d="M215.9,344c1.7-0.2,3.3-0.4,4.9-0.6c-0.2-4-2.5-13.8-3.7-15.8C216,333.1,215.8,338.4,215.9,344z"/>
	<path class="st55" d="M227.9,279c-0.2-2-2.1-5-4.6-5.4c0.3,4.8,0.6,9.6,1,14.6c1.2-1.3,1.9-2.5,2.6-3.7
		C227.9,282.8,228.1,281,227.9,279z"/>
	<path class="st55" d="M191.1,330.4c-0.1,0-0.2,0-0.3,0c0.6,7.4,1.2,14.7,1.8,22.4c1.4-0.7,2.6-1.2,3.6-1.9c3.1-2.1,4.5-5,3.9-8.6
		C199.3,336.7,195.9,333,191.1,330.4z"/>
</g>
</svg>
